HIERARCHY
ROOT Hips
{
	OFFSET 0.0000 0.0000 0.0000
	CHANNELS 6 Xposition Yposition Zposition Zrotation Xrotation Yrotation
	JOINT Spine1
	{
		OFFSET -0.0137 5.0038 -0.0537
		CHANNELS 3 Zrotation Xrotation Yrotation
		JOINT Spine2
		{
			OFFSET -0.0000 7.1253 -0.0298
			CHANNELS 3 Zrotation Xrotation Yrotation
			JOINT Chest
			{
				OFFSET -0.0000 7.5501 -0.8160
				CHANNELS 3 Zrotation Xrotation Yrotation
				JOINT Neck1
				{
					OFFSET -0.1817 26.3113 -0.5533
					CHANNELS 3 Zrotation Xrotation Yrotation
					JOINT Neck2
					{
						OFFSET -0.0000 7.7094 2.3026
						CHANNELS 3 Zrotation Xrotation Yrotation
						JOINT Head
						{
							OFFSET -0.0000 6.1289 1.9537
							CHANNELS 3 Zrotation Xrotation Yrotation
							JOINT Jaw
							{
								OFFSET 0.0026 0.4756 3.0949
								CHANNELS 3 Zrotation Xrotation Yrotation
								End Site
								{
									OFFSET 0.0 1.0 0.0
								}
							}
							JOINT LeftEye
							{
								OFFSET 3.2064 5.3802 7.5869
								CHANNELS 3 Zrotation Xrotation Yrotation
								End Site
								{
									OFFSET 0.0 1.0 0.0
								}
							}
							JOINT RightEye
							{
								OFFSET -3.2224 5.3619 7.5582
								CHANNELS 3 Zrotation Xrotation Yrotation
								End Site
								{
									OFFSET 0.0 1.0 0.0
								}
							}
						}
					}
				}
				JOINT LeftShoulder
				{
					OFFSET 1.6217 23.2372 5.1134
					CHANNELS 3 Zrotation Xrotation Yrotation
					JOINT LeftArm
					{
						OFFSET 14.9198 0.0000 -5.5023
						CHANNELS 3 Zrotation Xrotation Yrotation
						JOINT LeftForeArm
						{
							OFFSET 28.7393 0.0000 -0.0026
							CHANNELS 3 Zrotation Xrotation Yrotation
							JOINT LeftHand
							{
								OFFSET 27.0940 -0.0000 0.0026
								CHANNELS 3 Zrotation Xrotation Yrotation
								JOINT LeftHandThumbEnd
								{
									OFFSET 12.2686 -3.2202 4.8331
									CHANNELS 3 Zrotation Xrotation Yrotation
									End Site
									{
										OFFSET 0.0 1.0 0.0
									}
								}
								JOINT LeftHandMiddleEnd
								{
									OFFSET 19.0120 -0.3129 -0.0340
									CHANNELS 3 Zrotation Xrotation Yrotation
									End Site
									{
										OFFSET 0.0 1.0 0.0
									}
								}
							}
						}
					}
				}
				JOINT RightShoulder
				{
					OFFSET -1.3801 23.1803 5.2142
					CHANNELS 3 Zrotation Xrotation Yrotation
					JOINT RightArm
					{
						OFFSET -15.0372 0.0000 -5.5456
						CHANNELS 3 Zrotation Xrotation Yrotation
						JOINT RightForeArm
						{
							OFFSET -28.7366 0.0000 -0.0026
							CHANNELS 3 Zrotation Xrotation Yrotation
							JOINT RightHand
							{
								OFFSET -27.1336 -0.0000 0.0026
								CHANNELS 3 Zrotation Xrotation Yrotation
								JOINT RightHandThumbEnd
								{
									OFFSET -12.2642 -3.2115 4.8040
									CHANNELS 3 Zrotation Xrotation Yrotation
									End Site
									{
										OFFSET 0.0 1.0 0.0
									}
								}
								JOINT RightHandMiddleEnd
								{
									OFFSET -19.0006 -0.3066 -0.0316
									CHANNELS 3 Zrotation Xrotation Yrotation
									End Site
									{
										OFFSET 0.0 1.0 0.0
									}
								}
							}
						}
					}
				}
			}
		}
	}
	JOINT LeftLeg
	{
		OFFSET 10.0432 -8.4345 2.5957
		CHANNELS 3 Zrotation Xrotation Yrotation
		JOINT LeftShin
		{
			OFFSET -0.0000 -43.2218 -0.8029
			CHANNELS 3 Zrotation Xrotation Yrotation
			JOINT LeftFoot
			{
				OFFSET 0.0000 -42.1551 -3.4815
				CHANNELS 3 Zrotation Xrotation Yrotation
				JOINT LeftToeBase
				{
					OFFSET 0.0000 -5.0595 13.2315
					CHANNELS 3 Zrotation Xrotation Yrotation
					End Site
					{
						OFFSET 0.0 1.0 0.0
					}
				}
			}
		}
	}
	JOINT RightLeg
	{
		OFFSET -10.0473 -8.2953 2.6203
		CHANNELS 3 Zrotation Xrotation Yrotation
		JOINT RightShin
		{
			OFFSET 0.0000 -43.3622 -0.8056
			CHANNELS 3 Zrotation Xrotation Yrotation
			JOINT RightFoot
			{
				OFFSET 0.0000 -42.1174 -3.4784
				CHANNELS 3 Zrotation Xrotation Yrotation
				JOINT RightToeBase
				{
					OFFSET -0.0000 -5.0796 13.2842
					CHANNELS 3 Zrotation Xrotation Yrotation
					End Site
					{
						OFFSET 0.0 1.0 0.0
					}
				}
			}
		}
	}
}
MOTION
Frames: 12
Frame Time: 0.033333
15.9352 89.3814 -185.8056 3.1051 -16.2140 1.2251 -1.1497 3.5574 0.5647 -1.7007 -3.6994 0.7793 -7.0895 18.1270 -2.5009 4.7823 43.8856 0.2108 -1.1301 -3.5024 -2.4308 2.9995 -2.9139 -4.6312 -0.0550 0.0002 0.0629 0.6062 -10.4790 -3.7972 -0.7155 -10.4720 3.9307 -4.9192 17.7674 -7.4531 -59.9305 -3.7198 -7.6678 -0.4928 -0.6868 -123.3602 -10.2476 19.7640 8.8802 -14.4066 11.0412 15.5852 -60.4089 1.5811 2.2956 -14.8261 19.9719 6.2620 64.8456 -22.1972 25.3069 -1.4429 1.4505 108.6793 -10.3346 44.8794 -56.8682 15.9007 7.2005 -15.2158 50.9200 -3.2893 -4.7674 6.5386 -23.8520 18.1272 -0.2487 46.1088 -0.2610 -22.2748 -11.7522 3.6919 1.4929 -3.1743 -2.0843 -16.0123 -4.5211 -18.0056 0.2225 49.2337 0.6962 13.0506 -29.8084 -11.0422 -1.5133 1.1775 0.8549
16.1502 89.5267 -187.2875 2.6942 -16.9203 1.2215 -0.9172 3.0284 0.5893 -1.6801 -3.8411 0.6759 -6.8813 17.6989 -2.4182 5.5978 44.9672 -0.2453 -1.0261 -3.5542 -2.5787 2.3988 -1.9379 -4.7250 -0.0479 0.0075 0.0472 0.6273 -10.5162 -3.8369 -0.7197 -10.5018 3.9360 -5.1001 18.3753 -6.6018 -58.0639 -1.1724 -4.7226 -0.5568 -0.7700 -124.5535 -11.5921 22.4695 6.9616 -14.5536 11.0645 15.7813 -60.5116 1.5024 2.1516 -14.8798 20.0603 5.7304 66.5336 -21.5715 24.5325 -1.3373 1.7585 108.7136 -11.6199 45.7799 -58.0259 15.7748 7.1035 -15.1211 50.7457 -3.3187 -4.8000 9.7110 -21.5287 15.6378 -0.4074 54.8742 -0.5463 -21.9903 -12.2210 2.9949 1.5917 -3.0054 -2.0321 -15.2115 -4.3767 -17.1777 0.2397 48.9674 0.7703 12.4863 -29.1561 -11.6718 -1.5045 0.9601 0.8271
16.4199 89.6977 -188.6220 1.8395 -17.2472 1.3867 -0.7607 2.4008 0.6804 -1.6666 -4.0700 0.3992 -6.7623 17.1560 -2.3309 6.5358 45.0487 -0.6354 -0.9692 -3.5723 -2.7760 1.9686 -0.9155 -4.9993 -0.0764 0.0132 0.0743 0.6105 -10.5488 -3.8347 -0.7588 -10.5293 3.9993 -5.5589 18.6883 -6.3714 -56.6647 -0.0194 -1.2054 -0.5450 -0.9829 -124.8229 -12.1703 24.5884 5.6138 -14.7664 11.0219 15.8630 -60.4653 1.5008 2.1451 -14.2473 19.9181 5.2669 67.9577 -20.5849 23.6599 -1.2001 1.9812 109.5145 -12.9242 46.5978 -58.8744 15.6382 7.0301 -15.0251 50.7310 -3.2577 -4.7867 13.1633 -17.7963 11.8684 -0.6767 63.6284 -0.9990 -19.0599 -11.2792 2.2888 1.6990 -3.2308 -1.9558 -13.8342 -4.3327 -16.3659 0.2197 48.4587 0.7675 12.2282 -28.2134 -12.7855 -1.4881 0.7731 0.8293
16.7200 89.8331 -189.9898 0.6914 -17.1592 2.0492 -0.7656 1.8085 0.7332 -1.6876 -4.3341 0.0508 -6.8014 16.6111 -2.3462 7.7515 44.0533 -0.9721 -1.0586 -3.5248 -3.0766 1.8361 -0.1821 -5.4324 -0.0867 0.0258 0.0870 0.5966 -10.5125 -3.8300 -0.7643 -10.4922 4.0256 -6.1689 18.5811 -6.6681 -55.8594 -0.0872 2.0272 -0.3952 -1.2253 -124.7801 -12.0863 25.6465 4.6886 -15.0301 10.9184 15.8505 -60.3493 1.5587 2.3217 -12.8721 19.7140 4.7815 69.0101 -19.4750 22.3027 -0.7408 2.1392 110.8469 -13.7744 47.0574 -58.9980 15.6987 7.0340 -14.9888 51.0513 -3.1651 -4.7093 16.0607 -12.4757 8.2425 -1.3231 69.5329 -1.9421 -15.6444 -9.0330 1.8771 1.7702 -3.9061 -1.9563 -12.1539 -4.6957 -15.7953 0.1181 48.0471 0.6250 12.2755 -27.0932 -14.3642 -1.4756 0.6501 0.8451
16.9925 89.9964 -191.5563 -0.3555 -16.4872 3.2148 -1.0979 1.2970 0.6733 -1.7447 -4.6015 -0.1726 -7.1933 16.1513 -2.5914 9.3857 42.0080 -1.1080 -1.3043 -3.4810 -3.5815 2.0427 0.2255 -5.9410 -0.0685 0.0175 0.0581 0.6073 -10.4716 -3.8479 -0.7353 -10.4557 3.9779 -6.8198 17.9672 -7.2599 -55.4464 -1.1579 4.3215 -0.0410 -1.3480 -124.5543 -11.5819 25.6063 4.0776 -15.2054 10.7478 15.7815 -60.1837 1.6370 2.5185 -10.6528 19.4016 4.3302 69.5857 -18.3536 20.4449 -0.0797 2.3680 112.2326 -14.4000 46.9269 -57.9247 15.8640 7.1054 -14.9980 51.4482 -3.1152 -4.6673 17.8890 -6.4978 5.6791 -1.7367 70.6290 -2.7252 -13.1023 -6.3425 1.6030 1.8473 -5.0213 -2.0537 -10.5383 -5.9074 -15.2722 0.0180 47.9333 0.4517 12.3300 -25.8493 -16.1265 -1.4696 0.5521 0.8765
17.3935 90.0752 -193.5112 -0.9746 -15.0895 4.9205 -1.8240 0.9414 0.5231 -1.8570 -4.7871 -0.2477 -8.0298 15.7727 -3.0000 11.4869 39.1128 -1.0383 -1.6001 -3.5143 -4.3456 2.7513 0.2076 -6.6161 -0.0564 0.0063 0.0380 0.6367 -10.3996 -3.8221 -0.7386 -10.3860 3.9063 -7.2736 17.1007 -8.1157 -55.3886 -3.2069 5.4719 0.3785 -1.4170 -124.1121 -10.8961 25.0085 3.7634 -15.2874 10.5267 15.6082 -59.9274 1.7223 2.6529 -7.9015 19.2191 3.8918 69.9429 -17.4872 18.1747 0.4077 2.4576 113.4961 -16.4385 46.8933 -56.9843 15.9992 7.2774 -15.0165 51.7414 -3.0477 -4.6043 18.2060 -0.8603 3.6589 -1.3632 65.7359 -2.6993 -13.1844 -4.3464 -0.2010 1.9338 -9.3478 -2.2218 -9.3535 -8.3470 -14.7867 -0.0299 48.2262 0.2714 12.2083 -24.3920 -17.7320 -1.4737 0.6700 0.9000
17.9575 89.9294 -195.9305 -1.1815 -13.1242 7.2322 -2.7146 0.7901 0.0889 -2.0242 -4.7719 -0.3003 -8.9497 15.5938 -3.3369 13.4239 35.8277 -0.8485 -1.8132 -3.5957 -5.1725 4.0460 -0.2926 -7.6221 -0.0610 0.0035 0.0705 0.6567 -10.3626 -3.7569 -0.7672 -10.3378 3.9075 -7.3972 16.3756 -9.2958 -56.0015 -6.1642 5.7638 0.2873 -1.3568 -123.3538 -10.0281 24.4422 4.0931 -15.1736 10.3779 15.4470 -59.4582 1.7753 2.8149 -5.7605 19.4035 3.4534 70.0371 -17.1220 15.8859 0.3974 2.2302 114.6330 -19.3162 46.4294 -56.1753 15.8552 7.4652 -15.0115 51.7878 -2.9852 -4.5739 16.9895 3.4452 1.2911 -0.8179 55.9030 -2.3558 -16.7898 -8.1377 -1.6044 2.2279 -20.3098 -2.5918 -8.7853 -11.8921 -14.4975 0.0078 48.8419 0.1846 12.1417 -22.8955 -19.1907 -1.4910 1.0887 0.8398
18.5429 89.8075 -198.8106 -0.9641 -11.2510 9.4498 -3.6287 1.2643 0.0274 -2.2565 -4.4589 -0.3676 -9.8692 15.8178 -4.0865 14.9273 32.5956 -0.8024 -2.1422 -3.8076 -5.7479 5.6148 -1.1163 -8.4016 -0.0151 -0.0672 0.0229 0.6947 -10.4178 -3.8056 -0.7127 -10.4051 3.8469 -7.2773 15.7246 -10.5144 -56.7108 -9.3385 5.4318 -0.2851 -1.1004 -122.5817 -8.9374 24.0383 4.8593 -14.9872 10.4116 15.4089 -59.0867 1.7734 2.8749 -5.3457 19.1030 3.3040 70.7481 -16.9845 12.5773 0.7799 1.9967 116.2299 -20.4727 45.2433 -54.4590 15.4172 7.5033 -15.2268 51.5343 -3.1752 -4.5399 14.9896 4.4454 -0.8515 -0.4068 48.8430 -1.7986 -18.4745 -18.0258 0.9862 2.0586 -15.1319 -2.4750 -8.8883 -15.9258 -13.7950 0.1005 49.5798 0.3131 12.2580 -20.8472 -20.6813 -1.5139 0.9306 0.8781
19.1610 90.2078 -201.7885 0.0261 -10.3270 10.9882 -4.3850 2.4385 0.0182 -2.5570 -3.9058 -0.1575 -11.7060 16.8072 -4.5608 16.3325 30.0186 -0.7060 -2.4927 -3.8338 -5.7889 7.6830 -1.9263 -9.0667 -0.0356 -0.0708 0.1043 0.6283 -10.3869 -3.6933 -0.6906 -10.3673 3.9038 -7.2369 15.2517 -11.8122 -56.5689 -12.2689 3.9463 -0.6316 -0.9940 -121.3248 -8.1863 25.0209 5.9252 -15.1147 10.3487 15.4092 -59.1924 1.8959 2.8454 -6.4022 19.5556 3.4085 72.9866 -17.3011 8.7230 0.8262 1.5407 118.1808 -22.0804 43.8852 -53.7643 15.5904 7.4495 -15.3446 51.3969 -3.2247 -4.8357 12.7128 1.8702 -2.3554 -0.3672 48.0908 -1.4736 -18.2904 -20.3524 1.9433 1.9327 -11.6852 -2.3658 -10.0279 -18.7565 -12.5330 0.1813 49.2262 0.5421 11.8327 -17.9267 -21.8103 -1.5290 0.4988 0.9023
19.9235 90.6066 -204.7555 0.4530 -9.8594 11.6244 -4.5070 3.7912 -0.0740 -2.7076 -3.2824 0.0451 -12.8232 17.8331 -4.5858 15.9299 28.0882 -0.6186 -2.4598 -3.7725 -5.7326 9.4991 -2.7916 -9.4809 -0.0660 -0.0712 0.1625 0.5713 -10.4085 -3.6170 -0.6968 -10.3777 3.9557 -7.2587 14.9575 -12.5516 -57.5280 -13.9963 2.4720 -0.8780 -0.9877 -120.7488 -7.2750 25.7092 7.2695 -15.1800 10.3353 15.2923 -59.4025 1.9728 2.6759 -9.6504 20.0622 3.6360 75.6733 -17.1880 5.0792 0.7269 1.2543 120.5485 -23.7195 43.6186 -56.2525 15.8359 7.3590 -15.2525 51.4900 -3.2031 -4.9324 11.3646 -0.9770 -2.5519 -0.4685 48.6320 -1.5338 -17.5633 -20.6314 2.2184 1.9114 -10.4135 -2.3570 -10.8110 -20.7289 -11.5199 0.2203 48.0979 0.6262 10.8773 -14.9952 -21.9898 -1.5300 0.3644 0.9245
20.7828 90.9044 -207.7449 0.4651 -9.0996 11.2494 -4.3542 4.8912 -0.0554 -2.6838 -2.7818 0.3149 -13.3039 18.6923 -4.5000 14.8051 26.0454 -0.4270 -2.3015 -3.7406 -5.4333 10.8726 -3.8001 -9.8478 -0.0812 -0.0685 0.1882 0.5526 -10.4435 -3.5857 -0.7113 -10.3978 3.9816 -7.6575 14.4736 -12.8997 -59.3575 -14.7408 1.4545 -1.1785 -1.0436 -120.9669 -5.8528 24.7348 8.6613 -15.1389 10.3093 15.0794 -59.4956 1.9905 2.4956 -12.4928 20.5062 4.3105 76.5163 -16.7293 2.1072 0.2694 1.0533 123.2672 -24.4435 43.9153 -59.5841 16.0124 7.4402 -15.2324 51.7944 -3.1134 -4.9772 10.2028 -3.1844 -2.1259 -0.5442 48.1296 -1.5534 -16.6826 -21.6368 3.8815 1.8904 -8.5948 -2.3573 -11.1331 -22.8232 -10.9216 0.2248 46.3496 0.6449 9.6206 -12.2624 -20.9472 -1.5313 0.2508 0.9051
21.6891 91.1774 -210.5187 0.2437 -7.8360 10.3554 -4.2013 5.6772 -0.0443 -2.6058 -2.4166 0.6573 -13.4756 19.3103 -4.4579 13.8306 23.7338 -0.2023 -2.0461 -3.7355 -5.1726 11.8546 -5.1474 -9.9785 -0.0784 -0.0586 0.1700 0.5722 -10.4205 -3.6038 -0.7264 -10.3690 3.9613 -8.1614 13.9921 -13.2064 -61.1636 -15.0060 1.1139 -1.5535 -1.0377 -121.5951 -4.3645 23.1648 9.5862 -15.0539 10.2191 14.9145 -59.2724 2.0147 2.4298 -14.1004 20.4951 5.1339 76.2021 -16.3565 -0.8080 -0.0270 0.8449 125.9323 -23.0109 43.7950 -60.5766 16.0570 7.5270 -15.3300 52.1284 -2.9649 -5.0419 9.1282 -5.3629 -1.7268 -0.4945 46.8975 -1.3218 -15.8594 -23.1284 6.5208 1.8307 -5.6277 -2.2747 -10.9008 -25.1257 -10.6158 0.2107 43.8752 0.6632 8.2620 -9.5801 -19.6271 -1.5363 -0.0522 0.9313
